# xmcd
#
# Track frame offsets: 
#        150
#        10943
#        24968
#        36020
#        48001
#        60475
#        73413
#        86368
#        97920
#        111468
#        125648
#        138511
#        149004
#        159967
#        173302
#        182957
#        195419
#        209699
#        221917
#        232834
#        243502
#        255905
#        270309
#        284929
#        298753
#        311510
#
# Disc length: 4309 seconds
#
# Revision: 0
# Processed by: cddbd v1.5.2PL0 Copyright (c) Steve Scherf et al.
# Submitted via: ExactAudioCopy v0.95b3
#
DISCID=7d10d31a
DTITLE=Chuck Berry  - Johnny B. Goode His Complete '50's Chess Recordi
DTITLE=ngs Disc 1
DYEAR=1900
DGENRE=
TTITLE0=Maybellene
TTITLE1=Wee Wee Hours
TTITLE2=Thirty Days (To Come Back Home)
TTITLE3=Together (We Will Always Be)
TTITLE4=You Can't Catch Me
TTITLE5=Rolli Polli
TTITLE6=Down Bound Train
TTITLE7=Berry Pickin'
TTITLE8=No Money Down
TTITLE9=I've Changed
TTITLE10=Drifting Heart
TTITLE11=Brown Eyed Handsome Man
TTITLE12=Roll Over Beethoven
TTITLE13=Too Much Monkey Business
TTITLE14=Maybellene LIVE
TTITLE15=Roll Over Beethoven LIVE
TTITLE16=Havana Moon
TTITLE17=Rock And Roll Music DEMO
TTITLE18=Untitled
TTITLE19=Deep Feeling
TTITLE20=School Day (Ring! Ring! Goes The Bell)
TTITLE21=Low Feeling
TTITLE22=La Jaunda
TTITLE23=Blue Feeling
TTITLE24=How You've Changed
TTITLE25=Oh Baby Doll
EXTD=
EXTT0=
EXTT1=
EXTT2=
EXTT3=
EXTT4=
EXTT5=
EXTT6=
EXTT7=
EXTT8=
EXTT9=
EXTT10=
EXTT11=
EXTT12=
EXTT13=
EXTT14=
EXTT15=
EXTT16=
EXTT17=
EXTT18=
EXTT19=
EXTT20=
EXTT21=
EXTT22=
EXTT23=
EXTT24=
EXTT25=
PLAYORDER=
